<svg data-v-423bf9ae="" xmlns="http://www.w3.org/2000/svg" viewBox="0 0 188.43210802700673 60" class="font"><!----><!----><defs data-v-423bf9ae=""><linearGradient data-v-423bf9ae="" gradientTransform="rotate(25)" id="3e42d9b9-f390-4669-aa7b-9b33f5790348" x1="0%" y1="0%" x2="100%" y2="0%"><stop data-v-423bf9ae="" offset="0%" style="stop-color: rgb(235, 76, 0); stop-opacity: 1;"></stop><stop data-v-423bf9ae="" offset="100%" style="stop-color: rgb(242, 169, 0); stop-opacity: 1;"></stop></linearGradient></defs><g data-v-423bf9ae="" id="6fb3e0db-1624-46a5-9407-176100aa0daf" fill="url(#3e42d9b9-f390-4669-aa7b-9b33f5790348)" transform="matrix(3.8409602642059326,0,0,3.8409602642059326,-0.8102003335952759,-13.443361282348633)"><path d="M3.14 7.43L3.14 7.43L3.14 7.43Q3.50 7.43 4.00 7.72L4.00 7.72L4.00 7.72Q4.51 8.01 4.51 8.39L4.51 8.39L4.51 8.39Q4.51 8.78 4.21 9.09L4.21 9.09L4.21 9.09Q3.91 9.39 3.53 9.39L3.53 9.39L3.53 9.39Q2.95 9.39 2.73 8.86L2.73 8.86L2.73 8.86Q2.70 8.78 2.64 8.78L2.64 8.78L2.64 8.78Q2.58 8.78 2.18 8.95L2.18 8.95L2.18 8.95Q1.78 9.11 1.64 9.18L1.64 9.18L1.64 9.18Q1.50 9.25 1.50 9.32L1.50 9.32L1.50 9.32Q1.50 9.38 1.69 9.48L1.69 9.48L1.69 9.48Q4.19 10.15 4.19 11.54L4.19 11.54L4.19 11.54Q4.19 12.03 3.80 12.55L3.80 12.55L3.80 12.55Q3.42 13.08 2.72 13.41L2.72 13.41L2.72 13.41Q2.02 13.75 1.37 13.75L1.37 13.75L1.37 13.75Q0.73 13.75 0.47 13.40L0.47 13.40L0.47 13.40Q0.21 13.05 0.21 12.39L0.21 12.39L0.21 12.39Q0.21 11.73 0.67 11.41L0.67 11.41L0.67 11.41Q1.29 11.00 1.68 11.00L1.68 11.00L1.68 11.00Q1.78 11.00 1.78 11.05L1.78 11.05L1.78 11.05Q1.78 11.10 1.56 11.23L1.56 11.23L1.56 11.23Q1.34 11.35 1.10 11.59L1.10 11.59L1.10 11.59Q0.85 11.83 0.85 11.98L0.85 11.98L0.85 11.98Q0.85 12.12 1.19 12.12L1.19 12.12L1.19 12.12Q2.09 12.12 2.95 11.62L2.95 11.62L2.95 11.62Q3.15 11.52 3.15 11.39L3.15 11.39L3.15 11.39Q3.15 11.26 2.86 11.12L2.86 11.12L2.86 11.12Q2.56 10.98 1.87 10.71L1.87 10.71L1.87 10.71Q1.18 10.44 0.78 10.25L0.78 10.25L0.78 10.25Q0.38 10.07 0.38 9.63L0.38 9.63L0.38 9.63Q0.38 9.51 0.44 9.27L0.44 9.27L0.44 9.27Q0.50 9.04 0.52 8.96L0.52 8.96L0.52 8.96Q0.59 8.47 0.96 8.29L0.96 8.29L0.96 8.29Q1.33 8.11 2.56 7.53L2.56 7.53L2.56 7.53Q2.77 7.43 3.14 7.43ZM7.83 11.89L7.83 11.89L7.83 11.89Q6.68 13.94 6.08 13.94L6.08 13.94L6.08 13.94Q5.64 13.94 5.29 13.41L5.29 13.41L5.29 13.41Q5.19 13.27 5.08 12.97L5.08 12.97L5.08 12.97Q4.97 12.67 4.81 12.42L4.81 12.42L4.81 12.42Q4.65 12.17 4.65 11.74L4.65 11.74L4.65 11.74Q4.65 11.31 4.82 10.98L4.82 10.98L4.82 10.98Q5.96 8.71 7.24 7.87L7.24 7.87L7.24 7.87Q7.41 7.74 7.63 7.74L7.63 7.74L7.63 7.74Q7.85 7.74 8.19 7.99L8.19 7.99L8.19 7.99Q8.39 8.19 8.43 8.33L8.43 8.33L8.43 8.33Q8.50 8.64 8.50 8.71L8.50 8.71L8.50 8.71Q8.99 8.88 8.99 9.32L8.99 9.32L8.99 9.32Q8.99 9.63 8.82 10.72L8.82 10.72L8.82 10.72Q8.65 11.80 8.62 12.33L8.62 12.33L8.62 12.33Q8.62 12.63 8.82 12.63L8.82 12.63L8.82 12.63Q9.04 12.63 9.63 11.84L9.63 11.84L9.63 11.84Q10.21 11.06 10.29 11.06L10.29 11.06L10.29 11.06Q10.43 11.06 10.43 11.52L10.43 11.52L10.40 12.21L10.40 12.21Q10.40 12.60 10.05 13.28L10.05 13.28L10.05 13.28Q9.70 13.96 9.16 13.96L9.16 13.96L9.16 13.96Q8.82 13.96 8.62 13.73L8.62 13.73L8.62 13.73Q8.55 13.66 8.41 13.45L8.41 13.45L8.41 13.45Q7.98 12.82 7.83 11.89ZM7.95 8.65L7.95 8.65L7.95 8.65Q6.19 10.26 5.71 12.33L5.71 12.33L5.71 12.33Q7.13 11.12 7.95 8.65ZM13.36 9.21L13.36 9.21L13.36 9.21Q13.48 9.21 13.57 9.21L13.57 9.21L13.57 9.21Q13.65 9.21 13.73 9.22L13.73 9.22L13.73 9.22Q13.82 9.23 13.86 9.23L13.86 9.23L13.86 9.23Q13.90 9.24 13.96 9.26L13.96 9.26L13.96 9.26Q14.03 9.28 14.06 9.32L14.06 9.32L14.06 9.32Q14.08 9.35 14.11 9.39L14.11 9.39L14.11 9.39Q14.18 9.46 14.18 9.58L14.18 9.58L14.18 9.58Q14.18 9.69 14.11 10.35L14.11 10.35L14.11 10.35Q14.04 11.00 14.04 11.40L14.04 11.40L14.04 11.40Q14.04 12.52 14.20 12.52L14.20 12.52L14.20 12.52Q14.25 12.52 14.34 12.35L14.34 12.35L14.34 12.35Q14.76 11.49 14.76 10.02L14.76 10.02L14.76 10.02Q14.76 8.58 14.62 8.30L14.62 8.30L14.62 8.30Q14.49 8.02 14.36 7.92L14.36 7.92L14.36 7.92Q14.24 7.81 14.13 7.73L14.13 7.73L14.13 7.73Q14.03 7.64 14.03 7.60L14.03 7.60L14.03 7.60Q14.03 7.46 14.27 7.46L14.27 7.46L14.48 7.46L14.48 7.46Q14.78 7.48 14.99 7.92L14.99 7.92L14.99 7.92Q15.86 9.76 15.86 11.42L15.86 11.42L15.86 11.42Q15.86 12.19 15.69 12.82L15.69 12.82L15.69 12.82Q15.37 13.99 14.57 13.99L14.57 13.99L14.57 13.99Q14.27 13.99 13.93 13.74L13.93 13.74L13.93 13.74Q13.59 13.50 13.42 13.10L13.42 13.10L13.42 13.10Q13.24 12.71 13.13 12.08L13.13 12.08L13.13 12.08Q12.98 12.59 12.63 13.21L12.63 13.21L12.63 13.21Q12.28 13.83 11.97 13.83L11.97 13.83L11.97 13.83Q11.86 13.83 11.75 13.75L11.75 13.75L11.75 13.75Q10.88 13.10 10.88 11.48L10.88 11.48L10.88 11.48Q10.88 10.60 11.12 9.84L11.12 9.84L11.12 9.84Q11.20 9.60 11.44 8.96L11.44 8.96L11.44 8.96Q10.91 9.31 10.66 9.31L10.66 9.31L10.66 9.31Q10.42 9.31 10.28 9.00L10.28 9.00L10.28 9.00Q10.08 8.58 10.08 7.88L10.08 7.88L10.08 7.88Q10.08 7.71 10.22 7.71L10.22 7.71L10.42 7.74L10.42 7.74Q10.56 7.74 11.02 7.52L11.02 7.52L11.02 7.52Q11.48 7.29 11.65 7.29L11.65 7.29L11.65 7.29Q12.04 7.29 12.29 7.78L12.29 7.78L12.29 7.78Q12.54 8.26 12.54 8.57L12.54 8.57L12.54 8.57Q12.54 8.89 12.47 9.22L12.47 9.22L12.47 9.22Q12.40 9.55 12.14 10.51L12.14 10.51L12.14 10.51Q11.76 11.90 11.76 12.06L11.76 12.06L11.76 12.06Q11.76 12.22 11.82 12.22L11.82 12.22L11.82 12.22Q11.87 12.22 11.97 12.08L11.97 12.08L11.97 12.08Q12.53 11.21 12.95 9.55L12.95 9.55L12.95 9.55Q13.03 9.21 13.36 9.21ZM20.58 10.58L20.58 10.58L20.58 10.58Q20.68 10.58 20.68 11.16L20.68 11.16L20.68 11.16Q20.68 11.75 20.29 12.33L20.29 12.33L20.29 12.33Q20.12 12.67 19.75 13.11L19.75 13.11L19.75 13.11Q19.38 13.55 19.25 13.65L19.25 13.65L19.25 13.65Q18.87 13.92 18.64 13.92L18.64 13.92L18.64 13.92Q18.41 13.92 18.30 13.89L18.30 13.89L18.30 13.89Q18.19 13.86 18.08 13.77L18.08 13.77L18.08 13.77Q17.98 13.68 17.91 13.63L17.91 13.63L17.91 13.63Q17.85 13.58 17.76 13.43L17.76 13.43L17.76 13.43Q17.67 13.29 17.64 13.24L17.64 13.24L17.64 13.24Q17.61 13.20 17.51 13.02L17.51 13.02L17.51 13.02Q17.42 12.84 17.42 12.82L17.42 12.82L17.42 12.82Q17.15 12.33 17.15 11.89L17.15 11.89L17.15 11.89Q17.15 11.45 17.23 11.07L17.23 11.07L17.23 11.07Q17.30 10.68 17.47 10.12L17.47 10.12L17.47 10.12Q17.64 9.56 17.68 9.41L17.68 9.41L17.68 9.41Q17.47 9.67 17.12 9.98L17.12 9.98L17.12 9.98Q16.98 10.09 16.82 10.09L16.82 10.09L16.82 10.09Q16.66 10.09 16.55 9.95L16.55 9.95L16.55 9.95Q16.45 9.80 16.28 9.31L16.28 9.31L16.28 9.31Q16.11 8.82 16.11 8.64L16.11 8.64L16.11 8.64Q16.11 8.47 16.34 8.10L16.34 8.10L16.34 8.10Q16.56 7.73 16.60 7.60L16.60 7.60L16.60 7.60Q16.67 7.35 16.81 7.35L16.81 7.35L16.81 7.35Q16.88 7.35 17.15 7.50L17.15 7.50L17.15 7.50Q17.42 7.64 17.50 8.06L17.50 8.06L17.50 8.06Q17.53 8.23 17.63 8.23L17.63 8.23L17.63 8.23Q17.67 8.23 17.87 8.08L17.87 8.08L17.87 8.08Q18.07 7.92 18.32 7.92L18.32 7.92L18.32 7.92Q18.56 7.92 19.05 8.37L19.05 8.37L19.05 8.37Q19.22 8.54 19.22 8.85L19.22 8.85L19.22 8.85Q19.22 9.16 19.19 9.28L19.19 9.28L19.19 9.28Q19.15 9.41 19.11 9.45L19.11 9.45L19.11 9.45Q18.98 9.55 18.92 9.72L18.92 9.72L18.92 9.72Q18.86 9.90 18.54 11.04L18.54 11.04L18.54 11.04Q18.23 12.18 18.23 12.29L18.23 12.29L18.23 12.29Q18.23 12.40 18.31 12.40L18.31 12.40L18.31 12.40Q18.42 12.40 19.21 11.73L19.21 11.73L19.21 11.73Q19.99 11.06 20.34 10.74L20.34 10.74L20.34 10.74Q20.55 10.58 20.58 10.58ZM24.01 10.43L24.01 10.43L24.01 10.43Q24.01 12.12 23.03 13.44L23.03 13.44L23.03 13.44Q22.68 13.89 22.25 13.89L22.25 13.89L22.25 13.89Q21.83 13.89 21.57 13.68L21.57 13.68L21.57 13.68Q20.66 12.92 20.66 11.09L20.66 11.09L20.66 11.09Q20.66 9.81 21.35 7.84L21.35 7.84L21.35 7.84Q21.41 7.70 21.45 7.67L21.45 7.67L21.45 7.67Q21.49 7.63 21.59 7.63L21.59 7.63L21.59 7.63Q21.70 7.63 21.85 7.48L21.85 7.48L21.85 7.48Q22.01 7.34 22.36 7.34L22.36 7.34L22.36 7.34Q22.72 7.34 23.09 7.60L23.09 7.60L23.09 7.60Q23.45 7.87 23.62 8.32L23.62 8.32L23.62 8.32Q24.01 9.37 24.01 10.43ZM22.85 9.52L22.85 9.52L22.85 9.52Q22.85 8.23 22.53 8.23L22.53 8.23L22.53 8.23Q22.37 8.23 22.25 8.47L22.25 8.47L22.25 8.47Q21.69 9.80 21.69 11.65L21.69 11.65L21.69 11.65Q21.69 12.11 21.70 12.35L21.70 12.35L21.70 12.35Q22.85 11.47 22.85 9.52ZM24.22 7.28L24.57 7.31L25.24 7.25L25.24 7.25Q25.72 7.25 26.22 7.73L26.22 7.73L26.22 7.73Q26.49 7.98 26.49 8.22L26.49 8.22L26.49 8.22Q26.49 8.65 25.75 11.72L25.75 11.72L25.75 11.72Q25.72 11.86 25.72 11.97L25.72 11.97L25.72 11.97Q25.72 12.08 25.77 12.08L25.77 12.08L25.77 12.08Q25.83 12.08 25.96 11.96L25.96 11.96L25.96 11.96Q26.40 11.40 26.59 10.85L26.59 10.85L26.59 10.85Q26.77 10.30 26.85 10.04L26.85 10.04L26.85 10.04Q26.94 9.79 27.01 9.31L27.01 9.31L27.01 9.31Q27.08 8.83 27.10 8.64L27.10 8.64L27.10 8.64Q27.15 8.37 27.26 7.21L27.26 7.21L27.26 7.21Q27.30 6.94 27.42 6.94L27.42 6.94L27.42 6.94Q27.54 6.94 27.58 7.15L27.58 7.15L27.58 7.15Q27.87 8.75 27.87 10.40L27.87 10.40L27.87 10.40Q27.87 12.05 27.10 13.20L27.10 13.20L27.10 13.20Q26.71 13.82 26.21 13.82L26.21 13.82L26.21 13.82Q26.00 13.82 25.80 13.71L25.80 13.71L25.80 13.71Q25.26 13.45 24.93 12.80L24.93 12.80L24.93 12.80Q24.61 12.14 24.61 11.48L24.61 11.48L24.61 11.48Q24.61 11.02 24.72 10.65L24.72 10.65L24.72 10.65Q24.82 10.28 24.92 9.95L24.92 9.95L24.92 9.95Q25.07 9.45 25.07 9.32L25.07 9.32L25.07 9.32Q25.07 9.18 24.82 9.07L24.82 9.07L24.82 9.07Q24.56 8.96 24.48 8.77L24.48 8.77L24.48 8.77Q24.40 8.58 24.26 8.03L24.26 8.03L24.26 8.03Q24.12 7.48 24.12 7.38L24.12 7.38L24.12 7.38Q24.12 7.28 24.22 7.28L24.22 7.28ZM31.77 7.64L31.77 7.64L31.72 8.05L31.72 8.05Q31.72 8.27 31.85 8.27L31.85 8.27L31.85 8.27Q31.91 8.27 31.98 8.20L31.98 8.20L31.98 8.20Q32.47 7.71 33.03 6.44L33.03 6.44L33.03 6.44Q33.59 5.17 34.16 4.10L34.16 4.10L34.16 4.10Q34.31 3.78 34.58 3.78L34.58 3.78L34.58 3.78Q34.85 3.78 34.99 3.98L34.99 3.98L34.99 3.98Q35.14 4.17 35.14 4.42L35.14 4.42L35.14 4.42Q35.14 4.66 35 4.84L35 4.84L35 4.84Q34.15 6.13 33.24 9.07L33.24 9.07L33.24 9.07Q33.84 8.85 34.51 8.23L34.51 8.23L34.51 8.23Q34.78 8.01 35.09 8.01L35.09 8.01L35.09 8.01Q35.41 8.01 35.83 8.27L35.83 8.27L35.83 8.27Q36.26 8.53 36.26 8.84L36.26 8.84L36.26 8.84Q36.26 9.16 35.71 9.55L35.71 9.55L35.71 9.55Q35.15 9.94 34.65 10.18L34.65 10.18L34.65 10.18Q35.25 10.98 35.52 11.70L35.52 11.70L35.52 11.70Q35.80 12.43 35.80 13.36L35.80 13.36L35.80 13.36Q35.80 15.79 33.89 18.68L33.89 18.68L33.89 18.68Q33.70 18.96 33.45 19.04L33.45 19.04L33.45 19.04Q33.21 19.12 32.88 19.12L32.88 19.12L32.88 19.12Q32.55 19.12 32.43 19.04L32.43 19.04L32.43 19.04Q32.31 18.96 32.21 18.79L32.21 18.79L32.21 18.79Q32.10 18.62 31.90 18.31L31.90 18.31L31.90 18.31Q31.70 18.00 31.60 17.82L31.60 17.82L31.60 17.82Q31.12 16.88 31.12 15.53L31.12 15.53L31.12 15.53Q31.12 14.38 31.26 13.29L31.26 13.29L31.26 13.29Q31.46 11.91 31.68 10.42L31.68 10.42L31.68 10.42Q31.47 10.16 31.47 9.89L31.47 9.89L31.47 9.89Q31.47 9.62 31.70 9.46L31.70 9.46L31.70 9.46Q31.36 8.71 31.31 8.48L31.31 8.48L31.31 8.48Q31.26 8.25 31.26 8.02L31.26 8.02L31.26 8.02Q31.26 7.27 31.53 7.27L31.53 7.27L31.53 7.27Q31.63 7.27 31.70 7.40L31.70 7.40L31.70 7.40Q31.77 7.53 31.77 7.64ZM32.80 17.71L32.80 17.71Q33.64 16.81 34.18 15.30L34.18 15.30L34.18 15.30Q34.72 13.79 34.72 12.44L34.72 12.44L34.72 12.44Q34.72 11.09 33.67 10.54L33.67 10.54L33.67 10.54Q33.22 10.65 32.79 10.71L32.79 10.71L32.79 10.71Q32.16 13.45 32.16 16.87L32.16 16.87L32.16 16.87Q32.16 17.91 32.51 17.91L32.51 17.91L32.51 17.91Q32.63 17.91 32.80 17.71L32.80 17.71ZM39.72 10.43L39.72 10.43L39.72 10.43Q39.72 12.12 38.74 13.44L38.74 13.44L38.74 13.44Q38.39 13.89 37.96 13.89L37.96 13.89L37.96 13.89Q37.53 13.89 37.28 13.68L37.28 13.68L37.28 13.68Q36.37 12.92 36.37 11.09L36.37 11.09L36.37 11.09Q36.37 9.81 37.06 7.84L37.06 7.84L37.06 7.84Q37.11 7.70 37.16 7.67L37.16 7.67L37.16 7.67Q37.20 7.63 37.30 7.63L37.30 7.63L37.30 7.63Q37.41 7.63 37.56 7.48L37.56 7.48L37.56 7.48Q37.72 7.34 38.07 7.34L38.07 7.34L38.07 7.34Q38.43 7.34 38.79 7.60L38.79 7.60L38.79 7.60Q39.16 7.87 39.33 8.32L39.33 8.32L39.33 8.32Q39.72 9.37 39.72 10.43ZM38.56 9.52L38.56 9.52L38.56 9.52Q38.56 8.23 38.23 8.23L38.23 8.23L38.23 8.23Q38.08 8.23 37.95 8.47L37.95 8.47L37.95 8.47Q37.39 9.80 37.39 11.65L37.39 11.65L37.39 11.65Q37.39 12.11 37.41 12.35L37.41 12.35L37.41 12.35Q38.56 11.47 38.56 9.52ZM43.57 10.43L43.57 10.43L43.57 10.43Q43.57 12.12 42.59 13.44L42.59 13.44L42.59 13.44Q42.24 13.89 41.81 13.89L41.81 13.89L41.81 13.89Q41.38 13.89 41.13 13.68L41.13 13.68L41.13 13.68Q40.22 12.92 40.22 11.09L40.22 11.09L40.22 11.09Q40.22 9.81 40.91 7.84L40.91 7.84L40.91 7.84Q40.96 7.70 41.01 7.67L41.01 7.67L41.01 7.67Q41.05 7.63 41.15 7.63L41.15 7.63L41.15 7.63Q41.26 7.63 41.41 7.48L41.41 7.48L41.41 7.48Q41.57 7.34 41.92 7.34L41.92 7.34L41.92 7.34Q42.28 7.34 42.64 7.60L42.64 7.60L42.64 7.60Q43.01 7.87 43.18 8.32L43.18 8.32L43.18 8.32Q43.57 9.37 43.57 10.43ZM42.41 9.52L42.41 9.52L42.41 9.52Q42.41 8.23 42.08 8.23L42.08 8.23L42.08 8.23Q41.93 8.23 41.80 8.47L41.80 8.47L41.80 8.47Q41.24 9.80 41.24 11.65L41.24 11.65L41.24 11.65Q41.24 12.11 41.26 12.35L41.26 12.35L41.26 12.35Q42.41 11.47 42.41 9.52ZM49.27 11.14L49.17 11.75L49.21 12.47L49.21 12.47Q49.21 13.24 48.80 13.24L48.80 13.24L48.80 13.24Q48.48 13.24 48.24 12.91L48.24 12.91L48.24 12.91Q48.01 12.57 47.88 12.30L47.88 12.30L47.88 12.30Q47.75 12.03 47.63 11.78L47.63 11.78L47.63 11.78Q47.50 11.54 47.40 11.20L47.40 11.20L47.40 11.20Q47.39 11.24 47.32 11.49L47.32 11.49L47.21 11.87L47.21 11.87Q47.04 12.49 46.95 12.69L46.95 12.69L46.95 12.69Q46.86 12.89 46.75 13.14L46.75 13.14L46.75 13.14Q46.65 13.38 46.54 13.53L46.54 13.53L46.54 13.53Q46.42 13.68 46.30 13.82L46.30 13.82L46.30 13.82Q46.05 14.11 45.69 14.11L45.69 14.11L45.69 14.11Q45.33 14.11 45.00 13.71L45.00 13.71L45.00 13.71Q44.42 13.03 44.16 12.03L44.16 12.03L44.16 12.03Q44.03 11.61 44.03 11.06L44.03 11.06L44.03 11.06Q44.03 10.51 44.37 9.85L44.37 9.85L44.37 9.85Q44.70 9.18 45.37 8.39L45.37 8.39L45.37 8.39Q46.05 7.59 46.62 7.59L46.62 7.59L46.62 7.59Q46.93 7.59 47.32 7.88L47.32 7.88L47.32 7.88Q47.40 7.13 47.60 5.74L47.60 5.74L47.60 5.74Q47.80 4.35 47.84 3.93L47.84 3.93L47.84 3.93Q47.88 3.50 48.14 3.50L48.14 3.50L48.14 3.50Q48.40 3.50 48.52 3.77L48.52 3.77L48.52 3.77Q48.64 4.05 48.64 4.31L48.64 4.31L48.64 4.31Q48.64 4.58 48.59 4.80L48.59 4.80L48.59 4.80Q48.20 8.81 48.20 11.31L48.20 11.31L48.20 11.31Q48.20 11.69 48.41 11.69L48.41 11.69L48.41 11.69Q48.62 11.69 48.87 11.36L48.87 11.36L48.87 11.36Q49.11 11.03 49.19 11.03L49.19 11.03L49.19 11.03Q49.27 11.03 49.27 11.14L49.27 11.14ZM46.96 9.07L46.96 9.07L46.96 9.07Q46.96 8.90 46.80 8.90L46.80 8.90L46.80 8.90Q46.63 8.90 46.41 9.04L46.41 9.04L46.41 9.04Q45.68 9.45 45.21 10.30L45.21 10.30L45.21 10.30Q44.74 11.16 44.74 12.01L44.74 12.01L44.74 12.01Q44.74 12.53 45.07 12.53L45.07 12.53L45.07 12.53Q45.19 12.53 45.35 12.38L45.35 12.38L45.35 12.38Q46.13 11.55 46.90 9.32L46.90 9.32L46.90 9.32Q46.96 9.18 46.96 9.07Z"></path></g><!----><!----></svg>